<svg width="746" height="740" viewBox="0 0 746 740" fill="none" xmlns="http://www.w3.org/2000/svg">
<path d="M251.885 124.06C112.781 192.506 54.1734 358.098 120.99 493.891C187.807 629.684 354.762 684.288 493.865 615.842C632.969 547.396 691.577 381.805 624.76 246.012C557.943 110.218 390.988 55.6148 251.885 124.06ZM282.132 185.533C364.105 145.199 458.705 162.675 519.986 221.209L165.269 395.747C156.285 311.48 200.16 225.868 282.132 185.533ZM387.999 400.687C370.603 409.247 349.745 402.425 341.389 385.444C333.034 368.462 340.355 347.774 357.751 339.215C375.147 330.655 396.005 337.477 404.361 354.459C412.717 371.441 405.395 392.128 387.999 400.687ZM183.961 462.906C269.996 420.573 379.494 467.217 430.345 566.866C333.976 595.787 228.773 553.978 183.961 462.906ZM493.82 535.633C445.898 434.543 475.754 319.33 561.789 276.996C606.6 368.068 575.534 476.929 493.82 535.633Z" fill="black" fill-opacity="0.4"/>
</svg>
