<svg width="512" height="513" viewBox="0 0 512 513" fill="none" xmlns="http://www.w3.org/2000/svg">
<path d="M511.2 387.006L487.95 487.806C484.684 502.056 472.16 512.026 457.49 512.026C205.2 512.006 0 306.806 0 54.5059C0 39.8459 9.969 27.3059 24.22 24.0559L125.02 0.805886C139.7 -2.59611 154.7 5.02389 160.8 18.9259L207.32 127.426C212.758 140.206 209.09 155.096 198.34 163.876L144.5 207.106C178.48 276.326 234.76 332.606 304 366.606L348.08 312.806C356.768 302.026 371.77 298.296 384.55 303.831L493.05 350.341C506.1 357.206 514.6 372.406 511.2 387.006Z" fill="white"/>
</svg>
